<svg width="0" height="0" class="hidden">
  <symbol xmlns="http://www.w3.org/2000/svg" viewBox="0 0 512 512" id="eps">
    <path d="M128 0c-17.6 0-32 14.4-32 32v448c0 17.6 14.4 32 32 32h320c17.6 0 32-14.4 32-32V128L352 0H128z" fill="#e2e5e7"></path>
    <path d="M384 128h96L352 0v96c0 17.6 14.4 32 32 32z" fill="#b0b7bd"></path>
    <path fill="#cad1d8" d="M480 224l-96-96h96z"></path>
    <path d="M416 416c0 8.8-7.2 16-16 16H48c-8.8 0-16-7.2-16-16V256c0-8.8 7.2-16 16-16h352c8.8 0 16 7.2 16 16v160z" fill="#f7b84e"></path>
    <path d="M116.608 384c-4.48 0-7.936-3.456-7.936-7.936v-72.656c0-4.608 3.456-7.936 7.936-7.936h45.92c11.776 0 11.52 16.624 0 16.624h-36.832v19.2h32.24c11.376 0 11.376 16.768 0 16.768h-32.24v19.184h39.024c11.648 0 12.528 16.752 0 16.752h-48.112zm73.872-80.848c0-4.224 3.328-8.848 8.704-8.848h29.552c16.64 0 31.616 11.136 31.616 32.496 0 20.224-14.976 31.472-31.616 31.472h-21.36v16.896c0 5.648-3.584 8.832-8.192 8.832-4.224 0-8.704-3.184-8.704-8.832v-72.016zm16.896 7.28v31.856h21.36c8.576 0 15.36-7.552 15.36-15.488 0-8.96-6.784-16.368-15.36-16.368h-21.36zm67.424 4.224c2.944-24.816 40.416-29.28 58.08-15.712 8.704 7.024-.512 18.16-8.192 12.528-9.472-6.016-30.96-8.832-33.648 4.464-3.456 20.992 52.192 8.976 51.296 42.992-.896 32.496-47.968 33.264-65.632 18.672-4.224-3.44-4.096-9.056-1.792-12.528 3.328-3.312 7.024-4.464 11.392-.896 10.48 7.168 37.488 12.544 39.408-5.648-1.664-18.912-54.88-7.52-50.912-43.872z" fill="#fff"></path>
    <path d="M400 432H96v16h304c8.8 0 16-7.2 16-16v-16c0 8.8-7.2 16-16 16z" fill="#cad1d8"></path>
  </symbol>
  <symbol xmlns="http://www.w3.org/2000/svg" viewBox="0 0 512 512" id="dll">
    <path d="M128 0c-17.6 0-32 14.4-32 32v448c0 17.6 14.4 32 32 32h320c17.6 0 32-14.4 32-32V128L352 0H128z" fill="#e2e5e7"></path>
    <path d="M384 128h96L352 0v96c0 17.6 14.4 32 32 32z" fill="#b0b7bd"></path>
    <path fill="#cad1d8" d="M480 224l-96-96h96z"></path>
    <path d="M416 416c0 8.8-7.2 16-16 16H48c-8.8 0-16-7.2-16-16V256c0-8.8 7.2-16 16-16h352c8.8 0 16 7.2 16 16v160z" fill="#576d7e"></path>
    <path d="M118.08 384c-4.224 0-8.832-2.32-8.832-7.936v-72.656c0-4.608 4.608-7.936 8.832-7.936h29.296c58.464 0 57.184 88.528 1.152 88.528H118.08zm8.064-72.928v57.312h21.232c34.544 0 36.08-57.312 0-57.312h-21.232zm82.464-7.92c0-4.224 3.584-7.808 8.064-7.808 4.096 0 7.552 3.6 7.552 7.808v64.096h34.8c12.528 0 12.8 16.752 0 16.752h-42.336c-4.48 0-8.064-3.184-8.064-7.808v-73.04h-.016zm74.944 0c0-4.224 3.584-7.808 8.064-7.808 4.096 0 7.552 3.6 7.552 7.808v64.096h34.8c12.528 0 12.8 16.752 0 16.752h-42.336c-4.48 0-8.064-3.184-8.064-7.808v-73.04h-.016z" fill="#fff"></path>
    <path d="M400 432H96v16h304c8.8 0 16-7.2 16-16v-16c0 8.8-7.2 16-16 16z" fill="#cad1d8"></path>
  </symbol>
  <symbol xmlns="http://www.w3.org/2000/svg" viewBox="0 0 512 512" id="zip">
    <path d="M128 0c-17.6 0-32 14.4-32 32v448c0 17.6 14.4 32 32 32h320c17.6 0 32-14.4 32-32V128L352 0H128z" fill="#e2e5e7"></path>
    <path d="M384 128h96L352 0v96c0 17.6 14.4 32 32 32z" fill="#b0b7bd"></path>
    <path fill="#cad1d8" d="M480 224l-96-96h96z"></path>
    <path d="M416 416c0 8.8-7.2 16-16 16H48c-8.8 0-16-7.2-16-16V256c0-8.8 7.2-16 16-16h352c8.8 0 16 7.2 16 16v160z" fill="#84bd5a"></path>
    <path d="M132.64 384c-8.064 0-11.264-7.792-6.656-13.296l45.552-60.512h-37.76c-11.12 0-10.224-15.712 0-15.712h51.568c9.712 0 12.528 9.184 5.632 16.624l-43.632 56.656h41.584c10.24 0 11.52 16.256-1.008 16.256h-55.28V384zm79.408-80.848c0-10.496 16.896-10.88 16.896 0v73.04c0 10.608-16.896 10.88-16.896 0v-73.04zm39.568 0c0-4.224 3.328-8.832 8.704-8.832h29.552c16.64 0 31.616 11.136 31.616 32.48 0 20.224-14.976 31.488-31.616 31.488h-21.36v16.896c0 5.632-3.584 8.816-8.192 8.816-4.224 0-8.704-3.184-8.704-8.816v-72.032zm16.88 7.28v31.872h21.36c8.576 0 15.36-7.568 15.36-15.504 0-8.944-6.784-16.368-15.36-16.368h-21.36z" fill="#fff"></path>
    <path d="M400 432H96v16h304c8.8 0 16-7.2 16-16v-16c0 8.8-7.2 16-16 16z" fill="#cad1d8"></path>
  </symbol>
  <symbol xmlns="http://www.w3.org/2000/svg" viewBox="0 0 512 512" id="psd">
    <path d="M128 0c-17.6 0-32 14.4-32 32v448c0 17.6 14.4 32 32 32h320c17.6 0 32-14.4 32-32V128L352 0H128z" fill="#e2e5e7"></path>
    <path d="M384 128h96L352 0v96c0 17.6 14.4 32 32 32z" fill="#b0b7bd"></path>
    <path fill="#cad1d8" d="M480 224l-96-96h96z"></path>
    <path d="M416 416c0 8.8-7.2 16-16 16H48c-8.8 0-16-7.2-16-16V256c0-8.8 7.2-16 16-16h352c8.8 0 16 7.2 16 16v160z" fill="#50bee8"></path>
    <path d="M100 303.152c0-4.224 3.328-8.848 8.688-8.848h29.552c16.64 0 31.616 11.136 31.616 32.496 0 20.224-14.976 31.472-31.616 31.472h-21.36v16.896c0 5.648-3.584 8.832-8.192 8.832-4.224 0-8.688-3.184-8.688-8.832v-72.016zm16.88 7.28v31.856h21.36c8.576 0 15.36-7.552 15.36-15.488 0-8.96-6.784-16.368-15.36-16.368h-21.36zm67.44 4.224c2.944-24.816 40.416-29.28 58.08-15.712 8.704 7.024-.512 18.16-8.192 12.528-9.472-6.016-30.96-8.832-33.648 4.464-3.456 20.992 52.192 8.976 51.296 42.992-.896 32.496-47.968 33.264-65.632 18.672-4.24-3.44-4.096-9.056-1.792-12.528 3.328-3.312 7.024-4.464 11.392-.896 10.48 7.168 37.488 12.544 39.392-5.648-1.648-18.912-54.88-7.52-50.896-43.872zM278.24 384c-4.224 0-8.832-2.32-8.832-7.936v-72.656c0-4.608 4.608-7.936 8.832-7.936h29.296C366 295.472 364.72 384 308.688 384H278.24zm8.064-72.928v57.312h21.232c34.544 0 36.08-57.312 0-57.312h-21.232z" fill="#fff"></path>
    <path d="M400 432H96v16h304c8.8 0 16-7.2 16-16v-16c0 8.8-7.2 16-16 16z" fill="#cad1d8"></path>
  </symbol>
  <symbol xmlns="http://www.w3.org/2000/svg" viewBox="0 0 512 512" id="avi">
    <path d="M128 0c-17.6 0-32 14.4-32 32v448c0 17.6 14.4 32 32 32h320c17.6 0 32-14.4 32-32V128L352 0H128z" fill="#e2e5e7"></path>
    <path d="M384 128h96L352 0v96c0 17.6 14.4 32 32 32z" fill="#b0b7bd"></path>
    <path fill="#cad1d8" d="M480 224l-96-96h96z"></path>
    <path d="M416 416c0 8.8-7.2 16-16 16H48c-8.8 0-16-7.2-16-16V256c0-8.8 7.2-16 16-16h352c8.8 0 16 7.2 16 16v160z" fill="#f15642"></path>
    <path d="M121.408 384.016c-4.096-2.32-6.656-6.912-4.096-12.288l36.72-71.76c3.456-6.784 12.656-7.04 15.856 0l36.08 71.76c5.248 9.968-10.24 17.904-14.848 7.92l-5.632-11.248h-47.2l-5.488 11.264c-2.048 4.352-6.784 5.248-11.392 4.352zm55.008-32.496l-14.464-31.6-15.728 31.6h30.192zm65.184 26.736l-33.776-70.736c-4.992-10.112 10.112-18.416 15.728-7.808l11.392 25.712 14.704 33.76 14.448-33.76 11.392-25.712c5.12-9.712 19.952-3.584 15.616 7.04l-32.624 71.504c-2.944 8.064-12.032 9.984-16.88 0zm65.28-75.104c0-10.48 16.896-10.88 16.896 0v73.04c0 10.624-16.896 10.88-16.896 0v-73.04z" fill="#fff"></path>
    <path d="M400 432H96v16h304c8.8 0 16-7.2 16-16v-16c0 8.8-7.2 16-16 16z" fill="#cad1d8"></path>
  </symbol>
  <symbol viewBox="0 0 0 0" id="pdf">
    <symbol xmlns="http://www.w3.org/2000/svg" viewBox="0 0 512 512" id="pdf">
      <path d="M128 0c-17.6 0-32 14.4-32 32v448c0 17.6 14.4 32 32 32h320c17.6 0 32-14.4 32-32V128L352 0H128z" fill="#e2e5e7"></path>
      <path d="M384 128h96L352 0v96c0 17.6 14.4 32 32 32z" fill="#b0b7bd"></path>
      <path fill="#cad1d8" d="M480 224l-96-96h96z"></path>
      <path d="M416 416c0 8.8-7.2 16-16 16H48c-8.8 0-16-7.2-16-16V256c0-8.8 7.2-16 16-16h352c8.8 0 16 7.2 16 16v160z" fill="#f15642"></path>
      <path d="M101.744 303.152c0-4.224 3.328-8.832 8.688-8.832h29.552c16.64 0 31.616 11.136 31.616 32.48 0 20.224-14.976 31.488-31.616 31.488h-21.36v16.896c0 5.632-3.584 8.816-8.192 8.816-4.224 0-8.688-3.184-8.688-8.816v-72.032zm16.88 7.28v31.872h21.36c8.576 0 15.36-7.568 15.36-15.504 0-8.944-6.784-16.368-15.36-16.368h-21.36zM196.656 384c-4.224 0-8.832-2.304-8.832-7.92v-72.672c0-4.592 4.608-7.936 8.832-7.936h29.296c58.464 0 57.184 88.528 1.152 88.528h-30.448zm8.064-72.912V368.4h21.232c34.544 0 36.08-57.312 0-57.312H204.72zm99.152 1.024v20.336h32.624c4.608 0 9.216 4.608 9.216 9.072 0 4.224-4.608 7.68-9.216 7.68h-32.624v26.864c0 4.48-3.184 7.92-7.664 7.92-5.632 0-9.072-3.44-9.072-7.92v-72.672c0-4.592 3.456-7.936 9.072-7.936h44.912c5.632 0 8.96 3.344 8.96 7.936 0 4.096-3.328 8.704-8.96 8.704h-37.248v.016z" fill="#fff"></path>
      <path d="M400 432H96v16h304c8.8 0 16-7.2 16-16v-16c0 8.8-7.2 16-16 16z" fill="#cad1d8"></path>
    </symbol>
  </symbol>
</svg>